<svg xmlns="http://www.w3.org/2000/svg" viewBox="0 0 1600 1000" role="img" aria-labelledby="title desc">
  <title id="title">海边骑自行车的鹈鹕</title>
  <desc id="desc">一只羽毛细腻的褐鹈鹕沿着阳光海滩骑着复古自行车，身后是波光粼粼的大海。</desc>
  <defs>
    <linearGradient id="sky" x1="0" y1="0" x2="0" y2="1">
      <stop offset="0" stop-color="#70b4df"/>
      <stop offset=".43" stop-color="#bfe1ec"/>
      <stop offset=".72" stop-color="#f8d8af"/>
      <stop offset="1" stop-color="#f0b68d"/>
    </linearGradient>
    <linearGradient id="sea" x1="0" y1="0" x2="0" y2="1">
      <stop offset="0" stop-color="#397fa6"/>
      <stop offset=".2" stop-color="#52a4bc"/>
      <stop offset=".67" stop-color="#91cad2"/>
      <stop offset="1" stop-color="#d0dbca"/>
    </linearGradient>
    <linearGradient id="sand" x1="0" y1="0" x2=".15" y2="1">
      <stop offset="0" stop-color="#f8e0a9"/>
      <stop offset=".35" stop-color="#edc783"/>
      <stop offset="1" stop-color="#c98c54"/>
    </linearGradient>
    <linearGradient id="creamFeather" x1="0" y1="0" x2="1" y2="1">
      <stop offset="0" stop-color="#fff9df"/>
      <stop offset=".38" stop-color="#e9d5a5"/>
      <stop offset=".72" stop-color="#ad8464"/>
      <stop offset="1" stop-color="#60483e"/>
    </linearGradient>
    <linearGradient id="neck" x1="0" y1="0" x2="1" y2="1">
      <stop offset="0" stop-color="#ffffe9"/>
      <stop offset=".26" stop-color="#f1e4bc"/>
      <stop offset=".63" stop-color="#b38d6e"/>
      <stop offset="1" stop-color="#725348"/>
    </linearGradient>
    <linearGradient id="wing" x1=".1" y1="0" x2=".9" y2="1">
      <stop offset="0" stop-color="#f5e2b0"/>
      <stop offset=".24" stop-color="#b78d67"/>
      <stop offset=".58" stop-color="#715144"/>
      <stop offset="1" stop-color="#302e32"/>
    </linearGradient>
    <linearGradient id="bill" x1="0" y1=".15" x2="1" y2=".85">
      <stop offset="0" stop-color="#f8c856"/>
      <stop offset=".4" stop-color="#dc9738"/>
      <stop offset=".7" stop-color="#a75e31"/>
      <stop offset="1" stop-color="#563b37"/>
    </linearGradient>
    <linearGradient id="pouch" x1="0" y1="0" x2=".8" y2="1">
      <stop offset="0" stop-color="#d2a66a"/>
      <stop offset=".4" stop-color="#b7785d"/>
      <stop offset="1" stop-color="#744a42"/>
    </linearGradient>
    <linearGradient id="leg" x1="0" y1="0" x2="1" y2="1">
      <stop offset="0" stop-color="#b9a994"/>
      <stop offset=".45" stop-color="#857466"/>
      <stop offset="1" stop-color="#493e3d"/>
    </linearGradient>
    <linearGradient id="metal" x1="0" y1="0" x2="1" y2="1">
      <stop offset="0" stop-color="#fcfded"/>
      <stop offset=".18" stop-color="#9eb0b1"/>
      <stop offset=".38" stop-color="#f4e3a9"/>
      <stop offset=".62" stop-color="#546468"/>
      <stop offset=".82" stop-color="#c5d5d1"/>
      <stop offset="1" stop-color="#526168"/>
    </linearGradient>
    <radialGradient id="tire" cx="40%" cy="33%" r="72%">
      <stop offset="0" stop-color="#52616a"/>
      <stop offset=".52" stop-color="#252b32"/>
      <stop offset="1" stop-color="#11161d"/>
    </radialGradient>
    <radialGradient id="sun" cx="50%" cy="50%" r="50%">
      <stop offset="0" stop-color="#fffce2"/>
      <stop offset=".38" stop-color="#ffe7a0" stop-opacity=".95"/>
      <stop offset="1" stop-color="#ffd288" stop-opacity="0"/>
    </radialGradient>
    <filter id="softShadow" x="-30%" y="-30%" width="160%" height="160%">
      <feGaussianBlur stdDeviation="13"/>
    </filter>
    <filter id="smallShadow" x="-30%" y="-30%" width="160%" height="160%">
      <feGaussianBlur stdDeviation="4"/>
    </filter>
    <filter id="glow" x="-50%" y="-50%" width="200%" height="200%">
      <feGaussianBlur stdDeviation="7" result="blur"/>
      <feMerge><feMergeNode in="blur"/><feMergeNode in="SourceGraphic"/></feMerge>
    </filter>
    <filter id="paperTexture" x="-10%" y="-10%" width="120%" height="120%">
      <feTurbulence type="fractalNoise" baseFrequency=".75" numOctaves="3" seed="27" result="noise"/>
      <feColorMatrix in="noise" type="saturate" values="0" result="mono"/>
      <feComponentTransfer in="mono" result="grain"><feFuncA type="table" tableValues="0 .075"/></feComponentTransfer>
      <feBlend in="SourceGraphic" in2="grain" mode="multiply"/>
    </filter>
    <clipPath id="seaClip"><path d="M0 412 C212 391 390 421 601 402 C825 381 1080 417 1600 389 L1600 690 L0 690Z"/></clipPath>
    <clipPath id="beachClip"><path d="M0 631 C212 601 376 632 579 651 C808 672 1003 631 1243 639 C1397 644 1504 669 1600 697 L1600 1000 L0 1000Z"/></clipPath>
  </defs>

  <g filter="url(#paperTexture)">
    <rect width="1600" height="670" fill="url(#sky)"/>
    <ellipse cx="1310" cy="163" rx="177" ry="177" fill="url(#sun)"/>
    <circle cx="1310" cy="163" r="56" fill="#fff4bf" opacity=".95"/>

    <!-- high, soft coastal clouds -->
    <g fill="#fffaf0" opacity=".62">
      <path d="M65 175 C86 139 127 135 150 158 C164 112 225 108 247 156 C270 131 316 140 326 177 C286 191 126 195 65 175Z"/>
      <path d="M1010 112 C1032 78 1070 78 1089 105 C1104 59 1173 61 1184 110 C1208 88 1255 101 1264 130 C1195 143 1066 140 1010 112Z" opacity=".72"/>
      <path d="M1340 293 C1362 264 1407 267 1426 294 C1442 261 1492 266 1505 304 C1530 288 1571 300 1582 325 C1512 338 1400 331 1340 293Z" opacity=".43"/>
    </g>
    <g fill="none" stroke="#f9ffff" stroke-linecap="round" opacity=".7">
      <path d="M280 286 q15-15 30 0 q15-15 30 0" stroke-width="4"/>
      <path d="M369 224 q12-12 24 0 q12-12 24 0" stroke-width="3"/>
      <path d="M104 315 q9-9 18 0 q9-9 18 0" stroke-width="3"/>
    </g>

    <!-- distant headlands -->
    <path d="M0 398 C70 367 144 361 216 385 C307 416 378 422 483 393 C559 371 638 373 705 398 L705 452 L0 452Z" fill="#537f82" opacity=".72"/>
    <path d="M1058 408 C1142 360 1224 365 1301 391 C1408 427 1493 400 1600 352 L1600 456 L1058 456Z" fill="#4a7779" opacity=".74"/>
    <path d="M0 421 C243 404 466 422 661 414 C907 402 1118 429 1600 399 L1600 691 L0 691Z" fill="url(#sea)"/>

    <!-- layered surf lines -->
    <g clip-path="url(#seaClip)" fill="none" stroke-linecap="round">
      <path d="M-40 454 C104 432 196 470 338 449 S589 434 748 454 S1038 475 1193 449 S1458 430 1650 453" stroke="#d8f1e9" stroke-width="9" opacity=".54"/>
      <path d="M-74 483 C105 459 237 500 394 476 S670 465 831 485 S1118 508 1307 478 S1482 468 1654 486" stroke="#f7fff1" stroke-width="5" opacity=".55"/>
      <path d="M-45 525 C110 496 239 535 389 514 S649 509 820 531 S1124 553 1313 523 S1495 512 1650 529" stroke="#e5f5e9" stroke-width="8" opacity=".64"/>
      <path d="M-30 570 C170 534 293 584 488 558 S809 557 970 579 S1261 596 1450 561 S1563 554 1644 574" stroke="#f9fff2" stroke-width="6" opacity=".72"/>
      <path d="M-47 612 C137 576 320 622 526 599 S800 599 1015 622 S1343 641 1648 596" stroke="#fffbe6" stroke-width="10" opacity=".85"/>
      <path d="M64 435 l105 -13 M534 435 l118 -13 M894 444 l118 -12 M1245 428 l130 -17" stroke="#b9e1db" stroke-width="4" opacity=".5"/>
      <path d="M180 554 l84 -12 M478 578 l115 -12 M1178 567 l123 -18 M1424 535 l86 -12" stroke="#82c4ca" stroke-width="4" opacity=".5"/>
    </g>

    <!-- beach, wet sand, and foam -->
    <path d="M0 631 C212 601 376 632 579 651 C808 672 1003 631 1243 639 C1397 644 1504 669 1600 697 L1600 1000 L0 1000Z" fill="url(#sand)"/>
    <g clip-path="url(#beachClip)">
      <path d="M-20 678 C158 634 345 693 533 687 S836 642 1033 673 S1382 696 1620 652" fill="none" stroke="#ffeed0" stroke-width="29" opacity=".74"/>
      <path d="M-35 693 C169 654 322 716 535 709 S830 662 1037 692 S1363 715 1632 670" fill="none" stroke="#fff8db" stroke-width="9" opacity=".92"/>
      <path d="M-20 739 C227 697 432 763 653 742 S1105 702 1608 730" fill="none" stroke="#c59567" stroke-width="3" opacity=".55"/>
      <path d="M-40 819 C187 779 446 839 684 812 S1178 773 1640 823" fill="none" stroke="#e7b878" stroke-width="5" opacity=".5"/>
      <path d="M-28 909 C194 862 414 930 684 900 S1200 862 1641 911" fill="none" stroke="#a96f4d" stroke-width="4" opacity=".35"/>
      <g fill="#a46d4e" opacity=".52">
        <ellipse cx="171" cy="805" rx="7" ry="3" transform="rotate(-18 171 805)"/>
        <ellipse cx="260" cy="908" rx="4" ry="2" transform="rotate(20 260 908)"/>
        <ellipse cx="467" cy="768" rx="8" ry="3" transform="rotate(-9 467 768)"/>
        <ellipse cx="1253" cy="782" rx="6" ry="2.5" transform="rotate(22 1253 782)"/>
        <ellipse cx="1436" cy="883" rx="9" ry="3" transform="rotate(-16 1436 883)"/>
        <ellipse cx="1107" cy="929" rx="4" ry="2" transform="rotate(12 1107 929)"/>
      </g>
    </g>

    <!-- grounding shadows -->
    <ellipse cx="891" cy="888" rx="455" ry="55" fill="#805c4b" opacity=".28" filter="url(#softShadow)"/>
    <ellipse cx="894" cy="856" rx="360" ry="26" fill="#624a42" opacity=".24" filter="url(#smallShadow)"/>

    <!-- bicycle wheels -->
    <g>
      <g transform="translate(625 769)">
        <circle r="157" fill="none" stroke="url(#tire)" stroke-width="24"/>
        <circle r="142" fill="none" stroke="#dbe0d5" stroke-width="4" opacity=".9"/>
        <circle r="136" fill="none" stroke="#697d80" stroke-width="2" opacity=".85"/>
        <g stroke="#c8d7d1" stroke-width="2" opacity=".78">
          <path d="M0 0 L0 -135 M0 0 L67 -118 M0 0 L117 -67 M0 0 L135 0 M0 0 L117 67 M0 0 L67 118 M0 0 L0 135 M0 0 L-67 118 M0 0 L-117 67 M0 0 L-135 0 M0 0 L-117 -67 M0 0 L-67 -118"/>
        </g>
        <circle r="16" fill="#d6b866" stroke="#49565d" stroke-width="5"/>
        <circle r="5" fill="#38434a"/>
      </g>
      <g transform="translate(1137 769)">
        <circle r="157" fill="none" stroke="url(#tire)" stroke-width="24"/>
        <circle r="142" fill="none" stroke="#dbe0d5" stroke-width="4" opacity=".9"/>
        <circle r="136" fill="none" stroke="#697d80" stroke-width="2" opacity=".85"/>
        <g stroke="#c8d7d1" stroke-width="2" opacity=".78">
          <path d="M0 0 L0 -135 M0 0 L67 -118 M0 0 L117 -67 M0 0 L135 0 M0 0 L117 67 M0 0 L67 118 M0 0 L0 135 M0 0 L-67 118 M0 0 L-117 67 M0 0 L-135 0 M0 0 L-117 -67 M0 0 L-67 -118"/>
        </g>
        <circle r="16" fill="#d6b866" stroke="#49565d" stroke-width="5"/>
        <circle r="5" fill="#38434a"/>
      </g>
    </g>

    <!-- bicycle frame behind the rider -->
    <g fill="none" stroke-linejoin="round" stroke-linecap="round">
      <path d="M625 769 L810 579 L949 769 Z M810 579 L1011 620 L949 769 M810 579 L887 539" stroke="#1e5c68" stroke-width="24"/>
      <path d="M625 769 L810 579 L949 769 Z M810 579 L1011 620 L949 769 M810 579 L887 539" stroke="#59a5a4" stroke-width="11"/>
      <path d="M949 769 L1137 769 L1011 620" stroke="#1f5b68" stroke-width="24"/>
      <path d="M949 769 L1137 769 L1011 620" stroke="#57a6a5" stroke-width="11"/>
      <path d="M1011 620 L1099 493 L1165 510" stroke="url(#metal)" stroke-width="13"/>
      <path d="M1095 492 C1121 473 1150 475 1178 491 C1190 498 1206 489 1210 474" stroke="#45585b" stroke-width="12"/>
      <path d="M1095 492 C1121 473 1150 475 1178 491 C1190 498 1206 489 1210 474" stroke="#f0d798" stroke-width="3"/>
      <path d="M810 579 L797 519" stroke="url(#metal)" stroke-width="15"/>
      <path d="M754 517 Q794 494 837 514 Q839 530 824 537 L769 537 Q753 533 754 517Z" fill="#714b3c" stroke="#3e3637" stroke-width="5"/>
      <path d="M949 769 L907 729" stroke="#47575a" stroke-width="8"/>
      <circle cx="949" cy="769" r="39" fill="#e3c05e" stroke="#34464d" stroke-width="10"/>
      <circle cx="949" cy="769" r="14" fill="#40575d"/>
      <path d="M949 769 L1016 802 M949 769 L891 735" stroke="#4a5656" stroke-width="9"/>
      <path d="M1009 805 l44 2 M884 733 l-43 -3" stroke="#2f3f45" stroke-width="12"/>
      <path d="M625 769 L949 769" stroke="#4d4d42" stroke-width="5" opacity=".8"/>
      <path d="M653 754 C732 730 835 740 912 766" stroke="#d5b65c" stroke-width="3" opacity=".72"/>
    </g>

    <!-- rear rack and small beach basket -->
    <g>
      <path d="M501 620 L601 620 L627 649 L520 649Z" fill="#b7854f" stroke="#5a4238" stroke-width="7"/>
      <path d="M505 623 L621 649 M526 620 L542 649 M554 620 L569 649 M582 620 L597 649" stroke="#efcb79" stroke-width="4" opacity=".75"/>
      <path d="M516 648 L548 712 M607 648 L578 705" fill="none" stroke="#45595b" stroke-width="8"/>
      <path d="M510 618 Q549 573 591 618" fill="none" stroke="#5a4238" stroke-width="7"/>
      <path d="M527 617 Q550 590 574 616" fill="none" stroke="#e2ba69" stroke-width="3"/>
      <path d="M540 601 Q550 580 561 601" fill="#6a9d72"/>
      <path d="M551 599 Q571 575 582 604" fill="#5d8d68"/>
    </g>

    <!-- pelican's long legs, intentionally visible through frame -->
    <g>
      <path d="M774 672 C765 710 786 737 825 754 C853 766 868 762 891 736" fill="none" stroke="#3e3638" stroke-width="35" stroke-linecap="round"/>
      <path d="M774 672 C765 710 786 737 825 754 C853 766 868 762 891 736" fill="none" stroke="url(#leg)" stroke-width="25" stroke-linecap="round"/>
      <path d="M868 670 C891 701 932 720 981 724 C1005 726 1026 746 1047 798" fill="none" stroke="#3e3638" stroke-width="35" stroke-linecap="round"/>
      <path d="M868 670 C891 701 932 720 981 724 C1005 726 1026 746 1047 798" fill="none" stroke="url(#leg)" stroke-width="25" stroke-linecap="round"/>
      <!-- webbed feet wrapped over pedals -->
      <path d="M852 732 C871 725 899 727 915 739 C899 746 892 754 882 764 C868 754 853 754 837 751 C838 743 844 736 852 732Z" fill="#5b4b46"/>
      <path d="M852 732 C871 725 899 727 915 739 C899 746 892 754 882 764 C868 754 853 754 837 751 C838 743 844 736 852 732Z" fill="url(#leg)" opacity=".8"/>
      <path d="M1018 788 C1035 778 1067 783 1082 801 C1063 803 1054 814 1044 824 C1030 813 1019 811 1003 808 C1005 800 1010 793 1018 788Z" fill="#51423f"/>
      <path d="M1021 790 C1038 783 1064 788 1078 802" fill="none" stroke="#aa957f" stroke-width="5" opacity=".65"/>
    </g>

    <!-- pelican body -->
    <g>
      <path d="M739 454 C709 489 690 554 698 624 C703 684 731 726 772 744 C815 763 901 754 949 717 C994 681 999 602 960 551 C925 505 871 477 821 459 C788 448 761 443 739 454Z" fill="#3e3738" opacity=".52" filter="url(#smallShadow)"/>
      <path d="M742 425 C699 462 686 528 699 604 C707 664 734 716 781 739 C825 760 901 748 945 710 C982 677 990 613 961 556 C930 494 870 465 824 440 C793 423 763 414 742 425Z" fill="url(#creamFeather)" stroke="#4c3e3b" stroke-width="7"/>
      <!-- pale breast -->
      <path d="M759 466 C726 514 731 588 757 642 C777 684 814 716 848 724 C818 661 824 613 843 570 C861 528 840 480 807 453 C787 436 770 446 759 466Z" fill="#f7edc7" opacity=".94"/>
      <path d="M763 484 C748 539 757 595 786 645 M783 470 C773 530 789 595 815 648 M810 471 C804 526 820 579 844 626" fill="none" stroke="#b69577" stroke-width="5" opacity=".55"/>
      <!-- folded wing -->
      <path d="M805 461 C857 463 932 500 962 554 C978 585 966 641 942 678 C923 707 883 734 829 728 C858 700 878 671 881 635 C884 596 853 545 805 461Z" fill="url(#wing)" stroke="#493a3a" stroke-width="7"/>
      <path d="M840 500 C883 536 907 579 910 637 C909 666 897 693 875 711 M867 490 C911 525 938 568 938 617 C939 651 925 683 904 704 M894 503 C930 535 953 571 956 603" fill="none" stroke="#e1c18e" stroke-width="5" opacity=".5"/>
      <path d="M825 534 C858 574 869 612 864 657 C860 685 845 707 829 728" fill="none" stroke="#2d3033" stroke-width="8" opacity=".58"/>
      <!-- feather tips -->
      <path d="M829 728 C856 711 881 697 905 703 C891 718 870 733 841 739Z" fill="#272b2f"/>
      <path d="M862 719 C891 697 916 684 937 683 C924 706 900 725 878 735Z" fill="#323135"/>
    </g>

    <!-- neck and head, placed in front of torso -->
    <g>
      <path d="M765 486 C720 457 687 418 686 371 C684 330 708 310 727 283 C743 261 746 230 731 199 C722 178 739 159 766 159 C808 160 839 180 843 213 C848 260 823 301 810 335 C797 369 805 415 844 463 C818 490 790 499 765 486Z" fill="#4b3c3b" opacity=".52" filter="url(#smallShadow)"/>
      <path d="M767 471 C725 447 701 414 701 372 C701 330 728 303 744 277 C762 248 765 219 749 190 C742 174 755 158 778 159 C818 160 845 181 849 216 C854 258 833 299 820 335 C806 373 816 414 851 455 C828 485 797 489 767 471Z" fill="url(#neck)" stroke="#51413d" stroke-width="7"/>
      <path d="M756 191 C786 194 806 213 807 238 C810 276 786 310 777 345 C770 380 782 419 812 455" fill="none" stroke="#fff6d7" stroke-width="12" opacity=".72"/>
      <path d="M730 353 C741 365 751 371 765 375 M727 383 C740 393 753 400 769 402 M737 414 C751 422 767 427 782 428" fill="none" stroke="#72584a" stroke-width="5" opacity=".65"/>
      <!-- crown -->
      <path d="M748 188 C735 169 745 145 764 138 C790 127 826 143 845 171 C818 158 792 158 766 170Z" fill="#f5edd0"/>
      <path d="M759 158 C774 130 797 123 822 134 M775 159 C796 132 818 133 839 153" fill="none" stroke="#6e594b" stroke-width="5" stroke-linecap="round"/>
      <!-- head -->
      <path d="M738 208 C746 177 781 164 814 177 C845 189 855 215 843 239 C827 268 792 280 756 266 C735 258 729 232 738 208Z" fill="#f4e7bd" stroke="#57443e" stroke-width="7"/>
      <path d="M744 220 C765 195 802 190 831 207 C833 218 829 228 822 238 C797 252 769 250 748 237Z" fill="#fff7d9" opacity=".82"/>
      <!-- eye and face stripe -->
      <path d="M748 222 C764 209 781 207 796 217 C781 223 766 233 752 241Z" fill="#6d5447" opacity=".72"/>
      <ellipse cx="777" cy="214" rx="13" ry="11" fill="#efe48c" stroke="#3c3332" stroke-width="4"/>
      <circle cx="778" cy="215" r="5.7" fill="#151a1b"/>
      <circle cx="781" cy="211" r="2" fill="#fffde2"/>
      <path d="M792 227 Q809 233 822 226" fill="none" stroke="#6f5242" stroke-width="4"/>
    </g>

    <!-- enormous pelican bill and pouch -->
    <g>
      <path d="M747 230 C706 224 671 234 625 253 C552 283 467 293 360 290 C325 289 297 304 297 325 C299 348 330 356 364 351 C478 337 585 338 666 319 C711 308 747 280 767 248 C769 239 760 233 747 230Z" fill="#574039" opacity=".42" filter="url(#smallShadow)"/>
      <path d="M746 218 C702 215 671 227 625 244 C553 270 468 280 361 278 C326 277 300 291 301 311 C302 332 330 342 366 336 C476 321 583 324 664 304 C710 293 743 268 765 239 C767 230 758 221 746 218Z" fill="url(#bill)" stroke="#523d39" stroke-width="7"/>
      <path d="M306 309 C356 308 459 306 570 294 C632 287 690 271 748 231" fill="none" stroke="#ffdd6a" stroke-width="8" opacity=".55"/>
      <path d="M357 338 C433 341 543 331 632 313 C686 302 722 277 755 245 C745 295 716 331 674 359 C610 403 497 414 394 395 C352 387 327 369 331 354 C334 345 343 340 357 338Z" fill="url(#pouch)" stroke="#593f3b" stroke-width="7"/>
      <path d="M356 351 C444 365 557 350 650 326 C690 315 722 291 750 260" fill="none" stroke="#e7bb82" stroke-width="7" opacity=".58"/>
      <path d="M386 365 C465 381 558 367 642 344 M423 381 C497 395 565 383 619 366" fill="none" stroke="#82574b" stroke-width="5" opacity=".52"/>
      <path d="M301 311 C297 297 310 282 334 277 C322 291 319 305 329 319 C321 322 311 319 301 311Z" fill="#40373a"/>
      <path d="M735 232 Q751 223 764 235 Q750 249 739 257Z" fill="#403236"/>
    </g>

    <!-- front wing reaches the handlebars -->
    <g>
      <path d="M861 492 C918 467 982 463 1030 486 C1075 508 1107 524 1140 516 C1159 511 1175 521 1178 538 C1181 557 1163 570 1145 570 C1105 570 1071 553 1031 548 C976 541 931 552 889 570 C858 557 847 523 861 492Z" fill="#453a3b" opacity=".48" filter="url(#smallShadow)"/>
      <path d="M857 479 C919 456 982 454 1028 476 C1073 497 1104 514 1137 505 C1156 500 1172 510 1175 527 C1178 545 1161 558 1143 558 C1104 558 1070 541 1032 536 C977 529 931 541 887 557 C858 545 846 509 857 479Z" fill="url(#wing)" stroke="#493a3a" stroke-width="7"/>
      <path d="M884 491 C934 479 976 485 1015 502 C1051 519 1083 531 1122 531 M881 510 C930 501 968 509 1006 524 C1045 540 1084 546 1128 544" fill="none" stroke="#e3c38f" stroke-width="5" opacity=".52"/>
      <path d="M1129 516 C1142 505 1159 510 1165 524 C1169 537 1159 548 1144 548 C1130 543 1123 530 1129 516Z" fill="#9b846e" stroke="#4c3d3c" stroke-width="5"/>
      <path d="M1138 531 L1162 521 M1138 537 L1160 535" stroke="#e0cfaf" stroke-width="3"/>
    </g>

    <!-- bike details in foreground -->
    <g fill="none" stroke-linecap="round" stroke-linejoin="round">
      <path d="M1099 493 L1137 769" stroke="#344a50" stroke-width="7" opacity=".78"/>
      <path d="M1153 521 Q1164 513 1175 521" stroke="#f8e4a3" stroke-width="4"/>
      <path d="M956 776 C974 794 1000 807 1028 808" stroke="#f5d878" stroke-width="4" opacity=".85"/>
      <circle cx="1011" cy="620" r="11" fill="#e7c861" stroke="#3d4f54" stroke-width="5"/>
      <path d="M563 613 L550 587" stroke="#47595c" stroke-width="9"/>
      <path d="M537 585 Q551 572 566 584" stroke="#efda94" stroke-width="4"/>
    </g>

    <!-- foreground dune grass gives a little depth -->
    <g fill="none" stroke-linecap="round">
      <path d="M88 1000 C75 929 96 884 142 841 M102 1000 C116 941 145 900 196 872 M141 1000 C135 939 121 907 92 871 M1496 1000 C1490 931 1519 889 1563 853 M1532 1000 C1539 940 1566 913 1591 899 M1462 1000 C1446 942 1420 909 1388 884" stroke="#8b9b57" stroke-width="10"/>
      <path d="M88 1000 C75 929 96 884 142 841 M102 1000 C116 941 145 900 196 872 M141 1000 C135 939 121 907 92 871 M1496 1000 C1490 931 1519 889 1563 853 M1532 1000 C1539 940 1566 913 1591 899 M1462 1000 C1446 942 1420 909 1388 884" stroke="#c9be6d" stroke-width="3" opacity=".7"/>
    </g>
  </g>
</svg>
